<mxfile host="app.diagrams.net" agent="Mozilla/5.0 (Windows NT 10.0; Win64; x64) AppleWebKit/537.36 (KHTML, like Gecko) Chrome/135.0.0.0 Safari/537.36 Edg/135.0.0.0" version="26.2.12">
  <diagram name="第 1 页" id="ZlN8nFo2UlgHV1nNUO57">
    <mxGraphModel dx="2424" dy="1348" grid="1" gridSize="10" guides="1" tooltips="1" connect="1" arrows="1" fold="1" page="1" pageScale="1" pageWidth="827" pageHeight="1169" math="1" shadow="0">
      <root>
        <mxCell id="0" />
        <mxCell id="1" parent="0" />
        <mxCell id="h0ZZB3K4nG2tE-HpFQFo-1" value="" style="rounded=0;whiteSpace=wrap;html=1;fontSize=16;" parent="1" vertex="1">
          <mxGeometry x="130" y="370" width="1920" height="1080" as="geometry" />
        </mxCell>
        <mxCell id="h0ZZB3K4nG2tE-HpFQFo-2" value="" style="endArrow=none;html=1;rounded=0;exitX=-0.002;exitY=0.082;exitDx=0;exitDy=0;exitPerimeter=0;entryX=0.998;entryY=0.081;entryDx=0;entryDy=0;entryPerimeter=0;fontSize=16;" parent="1" edge="1">
          <mxGeometry width="50" height="50" relative="1" as="geometry">
            <mxPoint x="131.15999999999985" y="441.55999999999995" as="sourcePoint" />
            <mxPoint x="2051.16" y="440.48" as="targetPoint" />
          </mxGeometry>
        </mxCell>
        <mxCell id="h0ZZB3K4nG2tE-HpFQFo-6" value="控制仿真的启停" style="text;html=1;align=center;verticalAlign=middle;resizable=0;points=[];autosize=1;strokeColor=none;fillColor=none;fontSize=16;" parent="1" vertex="1">
          <mxGeometry x="2040" y="298" width="140" height="30" as="geometry" />
        </mxCell>
        <mxCell id="h0ZZB3K4nG2tE-HpFQFo-7" value="" style="rounded=0;whiteSpace=wrap;html=1;fontSize=16;" parent="1" vertex="1">
          <mxGeometry x="1640" y="440" width="410" height="1010" as="geometry" />
        </mxCell>
        <mxCell id="h0ZZB3K4nG2tE-HpFQFo-8" value="" style="rounded=0;whiteSpace=wrap;html=1;fontSize=16;" parent="1" vertex="1">
          <mxGeometry x="1640" y="440" width="410" height="50" as="geometry" />
        </mxCell>
        <mxCell id="h0ZZB3K4nG2tE-HpFQFo-9" value="" style="rounded=0;whiteSpace=wrap;html=1;fontSize=16;" parent="1" vertex="1">
          <mxGeometry x="1640" y="490" width="410" height="50" as="geometry" />
        </mxCell>
        <mxCell id="h0ZZB3K4nG2tE-HpFQFo-10" value="" style="rounded=0;whiteSpace=wrap;html=1;fontSize=16;" parent="1" vertex="1">
          <mxGeometry x="1640" y="540" width="410" height="50" as="geometry" />
        </mxCell>
        <mxCell id="h0ZZB3K4nG2tE-HpFQFo-11" value="" style="rounded=0;whiteSpace=wrap;html=1;fontSize=16;" parent="1" vertex="1">
          <mxGeometry x="1640" y="590" width="410" height="50" as="geometry" />
        </mxCell>
        <mxCell id="h0ZZB3K4nG2tE-HpFQFo-12" value="" style="rounded=0;whiteSpace=wrap;html=1;fontSize=16;" parent="1" vertex="1">
          <mxGeometry x="1640" y="640" width="410" height="50" as="geometry" />
        </mxCell>
        <mxCell id="h0ZZB3K4nG2tE-HpFQFo-13" value="" style="rounded=0;whiteSpace=wrap;html=1;fontSize=16;" parent="1" vertex="1">
          <mxGeometry x="1640" y="690" width="410" height="50" as="geometry" />
        </mxCell>
        <mxCell id="h0ZZB3K4nG2tE-HpFQFo-15" value="当前速度" style="text;html=1;align=center;verticalAlign=middle;whiteSpace=wrap;rounded=0;fontSize=16;" parent="1" vertex="1">
          <mxGeometry x="1640" y="450" width="190" height="30" as="geometry" />
        </mxCell>
        <mxCell id="h0ZZB3K4nG2tE-HpFQFo-16" value="航向角" style="text;html=1;align=center;verticalAlign=middle;whiteSpace=wrap;rounded=0;fontSize=16;" parent="1" vertex="1">
          <mxGeometry x="1640" y="500" width="190" height="30" as="geometry" />
        </mxCell>
        <mxCell id="h0ZZB3K4nG2tE-HpFQFo-20" value="横向误差" style="text;html=1;align=center;verticalAlign=middle;whiteSpace=wrap;rounded=0;fontSize=16;" parent="1" vertex="1">
          <mxGeometry x="1640" y="550" width="190" height="30" as="geometry" />
        </mxCell>
        <mxCell id="h0ZZB3K4nG2tE-HpFQFo-21" value="纵向误差" style="text;html=1;align=center;verticalAlign=middle;whiteSpace=wrap;rounded=0;fontSize=16;" parent="1" vertex="1">
          <mxGeometry x="1640" y="600" width="190" height="30" as="geometry" />
        </mxCell>
        <mxCell id="h0ZZB3K4nG2tE-HpFQFo-22" value="当前控制转角" style="text;html=1;align=center;verticalAlign=middle;whiteSpace=wrap;rounded=0;fontSize=16;" parent="1" vertex="1">
          <mxGeometry x="1640" y="650" width="190" height="30" as="geometry" />
        </mxCell>
        <mxCell id="h0ZZB3K4nG2tE-HpFQFo-23" value="控制器状态" style="text;html=1;align=center;verticalAlign=middle;whiteSpace=wrap;rounded=0;fontSize=16;" parent="1" vertex="1">
          <mxGeometry x="1640" y="700" width="190" height="30" as="geometry" />
        </mxCell>
        <mxCell id="h0ZZB3K4nG2tE-HpFQFo-24" value="3D场景下显示，包括历史轨迹以及规划轨迹" style="rounded=0;whiteSpace=wrap;html=1;fontSize=16;" parent="1" vertex="1">
          <mxGeometry x="390" y="439" width="1250" height="1010" as="geometry" />
        </mxCell>
        <mxCell id="h0ZZB3K4nG2tE-HpFQFo-25" value="" style="rounded=0;whiteSpace=wrap;html=1;fontSize=16;" parent="1" vertex="1">
          <mxGeometry x="130" y="370" width="430" height="70" as="geometry" />
        </mxCell>
        <mxCell id="h0ZZB3K4nG2tE-HpFQFo-27" value="系统运行指示灯（绿色=运行，红色=故障，灰色=待机）" style="text;html=1;align=center;verticalAlign=middle;resizable=0;points=[];autosize=1;strokeColor=none;fillColor=none;fontSize=16;" parent="1" vertex="1">
          <mxGeometry x="135" y="390" width="420" height="30" as="geometry" />
        </mxCell>
        <mxCell id="h0ZZB3K4nG2tE-HpFQFo-28" value="车辆能源消耗情况（绿色=正常，黄色=建议补充，红色=急需补充）" style="rounded=0;whiteSpace=wrap;html=1;fontSize=16;" parent="1" vertex="1">
          <mxGeometry x="560" y="370" width="520" height="70" as="geometry" />
        </mxCell>
        <mxCell id="h0ZZB3K4nG2tE-HpFQFo-29" value="FPS: 30" style="rounded=0;whiteSpace=wrap;html=1;fontSize=16;" parent="1" vertex="1">
          <mxGeometry x="1540" y="439" width="100" height="100" as="geometry" />
        </mxCell>
        <mxCell id="h0ZZB3K4nG2tE-HpFQFo-30" value="80KM/h" style="text;html=1;align=center;verticalAlign=middle;resizable=0;points=[];autosize=1;strokeColor=none;fillColor=none;fontSize=16;" parent="1" vertex="1">
          <mxGeometry x="1915" y="450" width="80" height="30" as="geometry" />
        </mxCell>
        <mxCell id="h0ZZB3K4nG2tE-HpFQFo-31" value="3.5°" style="text;html=1;align=center;verticalAlign=middle;resizable=0;points=[];autosize=1;strokeColor=none;fillColor=none;fontSize=16;" parent="1" vertex="1">
          <mxGeometry x="1930" y="500" width="50" height="30" as="geometry" />
        </mxCell>
        <mxCell id="h0ZZB3K4nG2tE-HpFQFo-32" value="0.22m" style="text;html=1;align=center;verticalAlign=middle;resizable=0;points=[];autosize=1;strokeColor=none;fillColor=none;fontSize=16;" parent="1" vertex="1">
          <mxGeometry x="1920" y="550" width="70" height="30" as="geometry" />
        </mxCell>
        <mxCell id="h0ZZB3K4nG2tE-HpFQFo-33" value="0.15m" style="text;html=1;align=center;verticalAlign=middle;resizable=0;points=[];autosize=1;strokeColor=none;fillColor=none;fontSize=16;" parent="1" vertex="1">
          <mxGeometry x="1920" y="600" width="70" height="30" as="geometry" />
        </mxCell>
        <mxCell id="h0ZZB3K4nG2tE-HpFQFo-34" value="-3.2°" style="text;html=1;align=center;verticalAlign=middle;resizable=0;points=[];autosize=1;strokeColor=none;fillColor=none;fontSize=16;" parent="1" vertex="1">
          <mxGeometry x="1925" y="650" width="60" height="30" as="geometry" />
        </mxCell>
        <mxCell id="h0ZZB3K4nG2tE-HpFQFo-35" value="当前跟踪进度：10%，卫星信号强度" style="rounded=0;whiteSpace=wrap;html=1;fontSize=16;" parent="1" vertex="1">
          <mxGeometry x="1080" y="370" width="290" height="70" as="geometry" />
        </mxCell>
        <mxCell id="h0ZZB3K4nG2tE-HpFQFo-36" value="" style="rounded=0;whiteSpace=wrap;html=1;fontSize=16;" parent="1" vertex="1">
          <mxGeometry x="1640" y="740" width="410" height="50" as="geometry" />
        </mxCell>
        <mxCell id="h0ZZB3K4nG2tE-HpFQFo-37" value="加速度" style="text;html=1;align=center;verticalAlign=middle;whiteSpace=wrap;rounded=0;fontSize=16;" parent="1" vertex="1">
          <mxGeometry x="1640" y="750" width="190" height="30" as="geometry" />
        </mxCell>
        <mxCell id="h0ZZB3K4nG2tE-HpFQFo-38" value="`3.2m` /`s^2`" style="text;html=1;align=center;verticalAlign=middle;resizable=0;points=[];autosize=1;strokeColor=none;fillColor=none;fontSize=16;" parent="1" vertex="1">
          <mxGeometry x="1905" y="750" width="110" height="30" as="geometry" />
        </mxCell>
        <mxCell id="h0ZZB3K4nG2tE-HpFQFo-39" value="" style="rounded=0;whiteSpace=wrap;html=1;direction=south;fontSize=16;" parent="1" vertex="1">
          <mxGeometry x="1980" y="370" width="70" height="70" as="geometry" />
        </mxCell>
        <mxCell id="h0ZZB3K4nG2tE-HpFQFo-3" value="" style="shape=image;verticalLabelPosition=bottom;labelBackgroundColor=default;verticalAlign=top;aspect=fixed;imageAspect=0;image=data:image/svg+xml,PHN2ZyB4bWxuczp4bGluaz0iaHR0cDovL3d3dy53My5vcmcvMTk5OS94bGluayIgeG1sbnM9Imh0dHA6Ly93d3cudzMub3JnLzIwMDAvc3ZnIiBoZWlnaHQ9IjIwMCIgd2lkdGg9IjIwMCIgdmVyc2lvbj0iMS4xIiB2aWV3Qm94PSIwIDAgMTAyNCAxMDI0IiBjbGFzcz0iaWNvbiI+PHBhdGggZmlsbD0iIzVDNUM2NiIgZD0iTTMyMCA5MzguNjY2NjY3YTIxLjMzMzMzMyAyMS4zMzMzMzMgMCAwIDEtMjEuMzMzMzMzLTIxLjMzMzMzNFYxMDYuNjY2NjY3YTIxLjMzMzMzMyAyMS4zMzMzMzMgMCAwIDEgNDIuNjY2NjY2IDB2ODEwLjY2NjY2NmEyMS4zMzMzMzMgMjEuMzMzMzMzIDAgMCAxLTIxLjMzMzMzMyAyMS4zMzMzMzR6IG00MDUuMzMzMzMzLTIxLjMzMzMzNFYxMDYuNjY2NjY3YTIxLjMzMzMzMyAyMS4zMzMzMzMgMCAwIDAtNDIuNjY2NjY2IDB2ODEwLjY2NjY2NmEyMS4zMzMzMzMgMjEuMzMzMzMzIDAgMCAwIDQyLjY2NjY2NiAweiIvPjwvc3ZnPg==;fontSize=16;" parent="1" vertex="1">
          <mxGeometry x="2000" y="390" width="30" height="30" as="geometry" />
        </mxCell>
        <mxCell id="h0ZZB3K4nG2tE-HpFQFo-5" value="" style="endArrow=classic;html=1;rounded=0;entryX=1;entryY=0;entryDx=0;entryDy=0;fontSize=16;" parent="1" target="h0ZZB3K4nG2tE-HpFQFo-3" edge="1">
          <mxGeometry width="50" height="50" relative="1" as="geometry">
            <mxPoint x="2090" y="320" as="sourcePoint" />
            <mxPoint x="2170" y="290" as="targetPoint" />
          </mxGeometry>
        </mxCell>
        <mxCell id="h0ZZB3K4nG2tE-HpFQFo-40" value="摄像头在线：√ 雷达在线：√ 激光雷达在线：√" style="rounded=0;whiteSpace=wrap;html=1;fontSize=16;" parent="1" vertex="1">
          <mxGeometry x="1370" y="370" width="270" height="70" as="geometry" />
        </mxCell>
        <mxCell id="h0ZZB3K4nG2tE-HpFQFo-41" value="剩余续航里程、平均能耗、预计可达情况" style="text;html=1;align=center;verticalAlign=middle;whiteSpace=wrap;rounded=0;fontSize=16;" parent="1" vertex="1">
          <mxGeometry x="1640" y="390" width="340" height="30" as="geometry" />
        </mxCell>
        <mxCell id="h0ZZB3K4nG2tE-HpFQFo-42" value="" style="rounded=0;whiteSpace=wrap;html=1;fontSize=16;" parent="1" vertex="1">
          <mxGeometry x="1640" y="790" width="410" height="50" as="geometry" />
        </mxCell>
        <mxCell id="h0ZZB3K4nG2tE-HpFQFo-43" value="GPS定位" style="text;html=1;align=center;verticalAlign=middle;whiteSpace=wrap;rounded=0;fontSize=16;" parent="1" vertex="1">
          <mxGeometry x="1640" y="800" width="190" height="30" as="geometry" />
        </mxCell>
        <mxCell id="h0ZZB3K4nG2tE-HpFQFo-44" value="132° W 35° N 891 m" style="text;html=1;align=center;verticalAlign=middle;resizable=0;points=[];autosize=1;strokeColor=none;fillColor=none;fontSize=16;" parent="1" vertex="1">
          <mxGeometry x="1875" y="800" width="170" height="30" as="geometry" />
        </mxCell>
        <mxCell id="h0ZZB3K4nG2tE-HpFQFo-45" value="" style="rounded=0;whiteSpace=wrap;html=1;fontSize=16;" parent="1" vertex="1">
          <mxGeometry x="1640" y="840" width="410" height="150" as="geometry" />
        </mxCell>
        <mxCell id="h0ZZB3K4nG2tE-HpFQFo-46" value="跟踪误差曲线图（0~10s）" style="text;html=1;align=center;verticalAlign=middle;whiteSpace=wrap;rounded=0;fontSize=16;" parent="1" vertex="1">
          <mxGeometry x="1640" y="840" width="220" height="30" as="geometry" />
        </mxCell>
        <mxCell id="h0ZZB3K4nG2tE-HpFQFo-47" value="" style="rounded=0;whiteSpace=wrap;html=1;fontSize=16;" parent="1" vertex="1">
          <mxGeometry x="1640" y="990" width="410" height="150" as="geometry" />
        </mxCell>
        <mxCell id="h0ZZB3K4nG2tE-HpFQFo-48" value="" style="rounded=0;whiteSpace=wrap;html=1;fontSize=16;" parent="1" vertex="1">
          <mxGeometry x="1640" y="1140" width="410" height="150" as="geometry" />
        </mxCell>
        <mxCell id="h0ZZB3K4nG2tE-HpFQFo-49" value="车辆速度变化曲线图（折线）" style="text;html=1;align=center;verticalAlign=middle;whiteSpace=wrap;rounded=0;fontSize=16;" parent="1" vertex="1">
          <mxGeometry x="1640" y="990" width="220" height="30" as="geometry" />
        </mxCell>
        <mxCell id="h0ZZB3K4nG2tE-HpFQFo-50" value="&lt;div&gt;类型：折线图&lt;/div&gt;横轴：时间（s）&lt;div&gt;纵轴：速度（Km/h）&lt;/div&gt;" style="text;html=1;align=center;verticalAlign=middle;whiteSpace=wrap;rounded=0;fontSize=16;" parent="1" vertex="1">
          <mxGeometry x="1640" y="1020" width="410" height="120" as="geometry" />
        </mxCell>
        <mxCell id="h0ZZB3K4nG2tE-HpFQFo-51" value="能源消耗趋势图" style="text;html=1;align=center;verticalAlign=middle;whiteSpace=wrap;rounded=0;fontSize=16;" parent="1" vertex="1">
          <mxGeometry x="1640" y="1139" width="150" height="30" as="geometry" />
        </mxCell>
        <mxCell id="h0ZZB3K4nG2tE-HpFQFo-53" value="&lt;div&gt;类型：折线图&lt;/div&gt;横轴：时间/轨迹段编号&lt;div&gt;纵轴：单位能耗&lt;/div&gt;&lt;div&gt;观察在那一段能源消耗较大&lt;/div&gt;" style="text;html=1;align=center;verticalAlign=middle;whiteSpace=wrap;rounded=0;fontSize=16;" parent="1" vertex="1">
          <mxGeometry x="1707.5" y="1170" width="277.5" height="90" as="geometry" />
        </mxCell>
        <mxCell id="h0ZZB3K4nG2tE-HpFQFo-54" value="类型：折线图&lt;br&gt;横轴：时间&lt;br&gt;纵轴：横向误差和航向误差（单位：m）&lt;br&gt;辅助线：0.2m警戒线和-0.2m警戒线" style="text;html=1;align=center;verticalAlign=middle;whiteSpace=wrap;rounded=0;fontSize=16;" parent="1" vertex="1">
          <mxGeometry x="1640" y="870" width="410" height="120" as="geometry" />
        </mxCell>
        <mxCell id="h0ZZB3K4nG2tE-HpFQFo-55" value="异常次数趋势图" style="text;html=1;align=center;verticalAlign=middle;whiteSpace=wrap;rounded=0;fontSize=16;" parent="1" vertex="1">
          <mxGeometry x="1640" y="1290" width="200" height="30" as="geometry" />
        </mxCell>
        <mxCell id="h0ZZB3K4nG2tE-HpFQFo-56" value="&lt;div&gt;类型：折线图&lt;/div&gt;横轴：时间段（最近10分钟，统计每分钟内出现异常的次数）&lt;div&gt;纵轴：该时间段内发生异常的次数&lt;/div&gt;" style="text;html=1;align=center;verticalAlign=middle;whiteSpace=wrap;rounded=0;fontSize=16;" parent="1" vertex="1">
          <mxGeometry x="1640" y="1320" width="410" height="130" as="geometry" />
        </mxCell>
        <mxCell id="h0ZZB3K4nG2tE-HpFQFo-57" value="&lt;div&gt;│ [√] 轨迹已加载：map_v3.json&amp;nbsp; &amp;nbsp; &amp;nbsp;│&lt;/div&gt;&lt;div&gt;│ [√] 规划轨迹段数：12&amp;nbsp; &amp;nbsp; &amp;nbsp; &amp;nbsp; &amp;nbsp; &amp;nbsp; │&lt;/div&gt;&lt;div&gt;│ [×] MPC控制器收敛失败（第42帧） │&lt;/div&gt;&lt;div&gt;│ [√] 规划模块状态：运行中&amp;nbsp;&amp;nbsp;&lt;/div&gt;" style="rounded=0;whiteSpace=wrap;html=1;fontSize=16;align=left;" parent="1" vertex="1">
          <mxGeometry x="390" y="1340" width="1250" height="110" as="geometry" />
        </mxCell>
        <mxCell id="h0ZZB3K4nG2tE-HpFQFo-58" value="激光雷达点阵图" style="rounded=0;whiteSpace=wrap;html=1;fontSize=16;" parent="1" vertex="1">
          <mxGeometry x="1340" y="1190" width="150" height="150" as="geometry" />
        </mxCell>
        <mxCell id="h0ZZB3K4nG2tE-HpFQFo-59" value="摄像头实时采集到的画面" style="rounded=0;whiteSpace=wrap;html=1;fontSize=16;" parent="1" vertex="1">
          <mxGeometry x="1490" y="1190" width="150" height="150" as="geometry" />
        </mxCell>
        <mxCell id="h0ZZB3K4nG2tE-HpFQFo-60" value="当前地图的2d俯视画面，显示车辆位置等信息" style="rounded=0;whiteSpace=wrap;html=1;fontSize=16;" parent="1" vertex="1">
          <mxGeometry x="390" y="440" width="150" height="150" as="geometry" />
        </mxCell>
        <mxCell id="h0ZZB3K4nG2tE-HpFQFo-61" value="&lt;div&gt;【轨迹跟踪算法配置】&lt;/div&gt;&lt;div&gt;┌────────────────────┐&lt;/div&gt;&lt;div&gt;│ 跟踪算法选择： ⌄&amp;nbsp; &amp;nbsp; &amp;nbsp; &amp;nbsp; &amp;nbsp; &amp;nbsp; （如：Pure Pursuit, MPC, LQR）&lt;/div&gt;&lt;div&gt;│ 是否带前馈： ☐&amp;nbsp; &amp;nbsp; &amp;nbsp; &amp;nbsp; &amp;nbsp; &amp;nbsp; &amp;nbsp; &amp;nbsp;&lt;/div&gt;&lt;div&gt;│ 误差反馈增益： [____]&amp;nbsp; &amp;nbsp; &amp;nbsp; &amp;nbsp; &amp;nbsp;（如 Kp, Ki, Kd）&lt;/div&gt;&lt;div&gt;│ 控制周期：&amp;nbsp; &amp;nbsp; [____] ms&amp;nbsp; &amp;nbsp; &amp;nbsp; &amp;nbsp;（单位 ms）&lt;/div&gt;&lt;div&gt;│ 允许最大偏航角误差：[____] °&amp;nbsp; &amp;nbsp;│&lt;/div&gt;&lt;div&gt;└────────────────────┘&lt;/div&gt;&lt;div&gt;&lt;br&gt;&lt;/div&gt;" style="rounded=0;whiteSpace=wrap;html=1;fontSize=16;" parent="1" vertex="1">
          <mxGeometry x="130" y="440" width="260" height="390" as="geometry" />
        </mxCell>
        <mxCell id="h0ZZB3K4nG2tE-HpFQFo-62" value="&lt;div&gt;【仿真运行参数】&lt;/div&gt;&lt;div&gt;┌────────────────────┐&lt;/div&gt;&lt;div&gt;│ 初始速度： [____] km/h&amp;nbsp; &amp;nbsp; &amp;nbsp; &amp;nbsp; &amp;nbsp;&amp;nbsp;&lt;/div&gt;&lt;div&gt;│ 最大速度限制：[____] km/h&amp;nbsp; &amp;nbsp; &amp;nbsp; &amp;nbsp;&lt;/div&gt;&lt;div&gt;│ 噪声模拟： ☐ GPS ☐ 传感器 ☐ 控制信号&amp;nbsp;&lt;/div&gt;&lt;div&gt;│ 是否自动补能： ☐&amp;nbsp; &amp;nbsp; &amp;nbsp; &amp;nbsp; &amp;nbsp; &amp;nbsp; &amp;nbsp; &amp;nbsp;&amp;nbsp;&lt;/div&gt;&lt;div&gt;│ 补能触发阈值： [____]%&amp;nbsp; &amp;nbsp; &amp;nbsp; &amp;nbsp; &amp;nbsp;&amp;nbsp;&lt;/div&gt;&lt;div&gt;└────────────────────┘&lt;/div&gt;" style="rounded=0;whiteSpace=wrap;html=1;fontSize=16;" parent="1" vertex="1">
          <mxGeometry x="130" y="830" width="260" height="250" as="geometry" />
        </mxCell>
        <mxCell id="h0ZZB3K4nG2tE-HpFQFo-63" value="&lt;div&gt;【全局路径规划算法】&lt;/div&gt;&lt;div&gt;┌────────────────────┐&lt;/div&gt;&lt;div&gt;│ 规划方法： ⌄（DQN/AC/DDPG）&lt;span style=&quot;background-color: transparent; color: light-dark(rgb(0, 0, 0), rgb(255, 255, 255));&quot;&gt;动态避障： ☐ 开启&amp;nbsp; &amp;nbsp; &amp;nbsp; &amp;nbsp; &amp;nbsp; &amp;nbsp; &amp;nbsp; &amp;nbsp; &amp;nbsp;&lt;/span&gt;&lt;/div&gt;&lt;div&gt;路径平滑等级： [__] （0-1）&amp;nbsp; &amp;nbsp; &amp;nbsp; &amp;nbsp;&lt;/div&gt;&lt;div&gt;规划周期： [____] ms&amp;nbsp; &amp;nbsp; &amp;nbsp; &amp;nbsp; &amp;nbsp; &amp;nbsp; &amp;nbsp;&amp;nbsp;&lt;/div&gt;&lt;div&gt;└────────────────────┘&lt;/div&gt;&lt;div&gt;&lt;br&gt;&lt;/div&gt;" style="rounded=0;whiteSpace=wrap;html=1;fontSize=16;" parent="1" vertex="1">
          <mxGeometry x="130" y="1080" width="260" height="170" as="geometry" />
        </mxCell>
        <mxCell id="tIPrHCcVKCXK6Uo3HGk0-1" value="&lt;br&gt;&lt;div style=&quot;forced-color-adjust: none;&quot;&gt;【局部路径规划算法】&lt;/div&gt;&lt;div style=&quot;forced-color-adjust: none;&quot;&gt;&lt;br style=&quot;forced-color-adjust: none; color: rgb(0, 0, 0); font-family: Helvetica; font-size: 16px; font-style: normal; font-variant-ligatures: normal; font-variant-caps: normal; font-weight: 400; letter-spacing: normal; orphans: 2; text-align: center; text-indent: 0px; text-transform: none; widows: 2; word-spacing: 0px; -webkit-text-stroke-width: 0px; white-space: normal; background-color: rgb(236, 236, 236); text-decoration-thickness: initial; text-decoration-style: initial; text-decoration-color: initial;&quot;&gt;deepseek界面图&lt;br&gt;&lt;br&gt;&lt;/div&gt;" style="rounded=0;whiteSpace=wrap;html=1;fontSize=16;" vertex="1" parent="1">
          <mxGeometry x="130" y="1250" width="260" height="200" as="geometry" />
        </mxCell>
        <mxCell id="tIPrHCcVKCXK6Uo3HGk0-2" value="基于知识-数据双驱动的点对点自动驾驶轨迹规划与跟踪控制系统" style="text;html=1;align=center;verticalAlign=middle;whiteSpace=wrap;rounded=0;fontSize=30;" vertex="1" parent="1">
          <mxGeometry x="490" y="258" width="1200" height="110" as="geometry" />
        </mxCell>
      </root>
    </mxGraphModel>
  </diagram>
</mxfile>
